<?xml version="1.0" encoding="iso-8859-1"?>
<!-- Generator: Adobe Illustrator 19.0.0, SVG Export Plug-In . SVG Version: 6.00 Build 0)  -->
<svg version="1.1" id="Capa_1" xmlns="http://www.w3.org/2000/svg" xmlns:xlink="http://www.w3.org/1999/xlink" x="0px" y="0px"
	 viewBox="0 0 469.337 469.337" style="enable-background:new 0 0 469.337 469.337;" xml:space="preserve">
<path style="fill:#5F7BCE;" d="M149.333,0h277.333c23.564,0,42.667,19.103,42.667,42.667c0,0,0,0,0,0v128l0,0H106.667l0,0v-128
	C106.667,19.103,125.769,0,149.333,0L149.333,0L149.333,0z"/>
<path style="fill:#90A3DD;" d="M426.667,0H149.333l-0.08,0l-0.024,0l-0.057,0l-0.027,0l-0.061,0l-0.019,0l-0.079,0.001l-0.022,0
	l-0.059,0.001l-0.028,0l-0.055,0.001l-0.026,0l-0.066,0.001l-0.014,0l-0.078,0.001l-0.027,0l-0.055,0.001l-0.028,0.001l-0.056,0.001
	l-0.025,0l-0.079,0.002l-0.011,0l-0.069,0.002l-0.026,0.001l-0.058,0.001l-0.025,0.001l-0.064,0.002l-0.017,0L148.02,0.02
	l-0.023,0.001l-0.058,0.002l-0.028,0.001l-0.056,0.002l-0.024,0.001l-0.079,0.003l-0.007,0l-0.074,0.003l-0.022,0.001l-0.058,0.002
	l-0.027,0.001l-0.06,0.002l-0.02,0.001l-0.079,0.003l-0.017,0.001l-0.063,0.003l-0.026,0.001l-0.056,0.003l-0.027,0.001
	l-0.076,0.004l-0.002,0L147.06,0.06l-0.027,0.001l-0.054,0.003l-0.029,0.002l-0.054,0.003l-0.026,0.001l-0.077,0.004l-0.021,0.001
	l-0.058,0.003l-0.029,0.002l-0.051,0.003l-0.029,0.002l-0.059,0.004l-0.021,0.001l-0.076,0.005l-0.026,0.002l-0.053,0.004
	l-0.029,0.002l-0.053,0.004l-0.028,0.002l-0.076,0.005l-0.016,0.001l-0.063,0.005l-0.027,0.002l-0.053,0.004l-0.029,0.002
	l-0.055,0.004l-0.023,0.002l-0.076,0.006l-0.026,0.002l-0.054,0.004l-0.029,0.002l-0.053,0.004l-0.026,0.002l-0.156,0.014
	l-0.025,0.002l-0.055,0.005l-0.026,0.002l-0.057,0.005l-0.023,0.002l-0.077,0.007l-0.019,0.002l-0.058,0.006l-0.03,0.003
	l-0.053,0.005l-0.025,0.002l-0.07,0.007l-0.008,0.001l-0.079,0.008l-0.021,0.002l-0.057,0.006l-0.027,0.003l-0.057,0.006
	l-0.021,0.002l-0.078,0.008l-0.015,0.002l-0.063,0.007l-0.028,0.003l-0.051,0.006l-0.029,0.003l-0.056,0.006l-0.022,0.003
	l-0.075,0.009l-0.026,0.003l-0.052,0.006l-0.03,0.004l-0.049,0.006l-0.031,0.004l-0.067,0.008l-0.023,0.003l-0.061,0.008
	l-0.029,0.004l-0.049,0.006l-0.031,0.004l-0.046,0.006l-0.032,0.004l-0.072,0.009l-0.028,0.004l-0.05,0.007l-0.033,0.004
	l-0.045,0.006l-0.033,0.004l-0.052,0.007l-0.038,0.005l-0.06,0.008l-0.031,0.004l-0.046,0.006l-0.033,0.005l-0.048,0.007
	l-0.028,0.004L143.1,0.452l-0.026,0.004l-0.051,0.008l-0.031,0.005l-0.048,0.007l-0.031,0.005l-0.059,0.009l-0.017,0.003
	l-0.074,0.011l-0.031,0.005l-0.046,0.007l-0.033,0.005l-0.046,0.007l-0.031,0.005l-0.068,0.011l-0.027,0.004l-0.053,0.009
	l-0.035,0.006l-0.042,0.007l-0.033,0.005l-0.048,0.008l-0.029,0.005l-0.071,0.012l-0.029,0.005l-0.047,0.008l-0.033,0.006
	l-0.045,0.008l-0.032,0.006l-0.059,0.01L141.9,0.645l-0.062,0.011l-0.03,0.005l-0.046,0.008l-0.032,0.006l-0.047,0.008l-0.029,0.005
	l-0.07,0.013l-0.031,0.006l-0.046,0.008l-0.034,0.006l-0.041,0.008l-0.035,0.007l-0.049,0.009l-0.028,0.005l-0.068,0.013
	l-0.032,0.006l-0.043,0.008l-0.035,0.007l-0.039,0.008l-0.037,0.007l-0.064,0.013l-0.034,0.007l-0.045,0.009l-0.035,0.007
	l-0.042,0.009l-0.033,0.007l-0.049,0.01l-0.025,0.005l-0.072,0.015l-0.026,0.005l-0.048,0.01l-0.032,0.007l-0.044,0.009
	l-0.031,0.007l-0.05,0.01l-0.049,0.01l-0.046,0.01l-0.033,0.007l-0.042,0.009l-0.034,0.007l-0.045,0.01l-0.03,0.007l-0.068,0.015
	l-0.038,0.008l-0.037,0.008l-0.038,0.008l-0.037,0.008l-0.039,0.009l-0.037,0.008l-0.063,0.014l-0.039,0.009l-0.038,0.009
	l-0.037,0.008l-0.038,0.009l-0.036,0.008l-0.037,0.009l-0.05,0.012l-0.052,0.012l-0.038,0.009l-0.038,0.009l-0.036,0.009
	l-0.038,0.009l-0.038,0.009l-0.055,0.013l-0.048,0.012l-0.038,0.009l-0.034,0.008l-0.041,0.01l-0.033,0.008l-0.04,0.01l-0.041,0.01
	l-0.058,0.014l-0.04,0.01l-0.037,0.009l-0.036,0.009l-0.037,0.01l-0.041,0.011l-0.031,0.008l-0.067,0.017l-0.037,0.01l-0.036,0.009
	l-0.039,0.01l-0.033,0.009l-0.041,0.011l-0.032,0.008l-0.071,0.019l-0.034,0.009l-0.039,0.01l-0.034,0.009l-0.038,0.01l-0.036,0.01
	l-0.038,0.01l-0.063,0.017l-0.037,0.01l-0.037,0.01l-0.037,0.01l-0.038,0.01l-0.035,0.01l-0.037,0.01l-0.056,0.016l-0.045,0.013
	l-0.033,0.009l-0.041,0.012l-0.034,0.01l-0.039,0.011l-0.034,0.01l-0.053,0.015l-0.045,0.013l-0.041,0.012l-0.036,0.01l-0.036,0.011
	l-0.036,0.011l-0.039,0.011l-0.034,0.01l-0.065,0.019l-0.038,0.011l-0.034,0.01l-0.039,0.012l-0.033,0.01l-0.04,0.012l-0.036,0.011
	l-0.061,0.019l-0.038,0.012l-0.037,0.011l-0.036,0.011l-0.035,0.011l-0.041,0.013l-0.03,0.009l-0.067,0.021l-0.032,0.01
	l-0.039,0.012l-0.037,0.012l-0.035,0.011l-0.035,0.011l-0.039,0.012l-0.057,0.018l-0.041,0.013L136.23,2.05l-0.035,0.011
	l-0.037,0.012l-0.035,0.011l-0.037,0.012l-0.035,0.011l-0.068,0.022l-0.031,0.01l-0.04,0.013l-0.03,0.01l-0.042,0.014l-0.027,0.009
	l-0.071,0.024l-0.034,0.011l-0.037,0.012l-0.036,0.012L135.6,2.259l-0.033,0.011l-0.039,0.013l-0.033,0.011l-0.067,0.023
	l-0.034,0.012l-0.039,0.014l-0.031,0.011l-0.04,0.014l-0.03,0.01L135.19,2.4l-0.037,0.013l-0.037,0.013l-0.032,0.011l-0.04,0.014
	l-0.03,0.011l-0.04,0.014l-0.028,0.01l-0.075,0.027l-0.027,0.01l-0.04,0.014l-0.031,0.011l-0.038,0.014l-0.034,0.012l-0.035,0.013
	l-0.038,0.014l-0.064,0.024l-0.03,0.011l-0.039,0.015l-0.03,0.011l-0.039,0.014l-0.033,0.012l-0.065,0.024l-0.034,0.013
	l-0.038,0.014l-0.032,0.012l-0.036,0.014l-0.035,0.013l-0.036,0.014l-0.028,0.011l-0.074,0.028l-0.028,0.011l-0.04,0.015
	l-0.03,0.012l-0.038,0.015l-0.032,0.012l-0.052,0.02l-0.048,0.019l-0.033,0.013l-0.036,0.014l-0.037,0.014l-0.032,0.013
	l-0.037,0.015l-0.031,0.012l-0.069,0.027l-0.03,0.012l-0.039,0.016l-0.028,0.011l-0.041,0.017l-0.027,0.011l-0.041,0.017
	l-0.019,0.008l-0.082,0.033l-0.028,0.011l-0.04,0.017l-0.028,0.012l-0.04,0.017l-0.031,0.013l-0.056,0.023l-0.041,0.017
	l-0.035,0.015l-0.034,0.014l-0.035,0.015l-0.035,0.015l-0.034,0.014l-0.047,0.02l-0.048,0.021l-0.035,0.015l-0.036,0.015
	l-0.033,0.014l-0.035,0.015l-0.035,0.015l-0.052,0.022l-0.043,0.019l-0.034,0.015l-0.034,0.015l-0.036,0.016l-0.033,0.014
	l-0.036,0.016l-0.028,0.012l-0.071,0.031l-0.028,0.013l-0.037,0.016l-0.031,0.014l-0.037,0.017l-0.029,0.013l-0.038,0.017
	l-0.043,0.019l-0.053,0.024l-0.032,0.014l-0.037,0.017l-0.029,0.013l-0.038,0.017l-0.029,0.013l-0.068,0.031l-0.028,0.013
	l-0.039,0.018l-0.027,0.012l-0.039,0.018l-0.027,0.012l-0.041,0.019l-0.014,0.006l-0.083,0.039l-0.028,0.013l-0.039,0.018
	l-0.028,0.013l-0.039,0.018l-0.026,0.012l-0.081,0.038l-0.017,0.008l-0.04,0.019l-0.027,0.013l-0.039,0.019l-0.029,0.014
	l-0.035,0.017l-0.037,0.018l-0.059,0.029l-0.031,0.015l-0.036,0.018l-0.029,0.014l-0.037,0.018l-0.032,0.016l-0.042,0.02
	l-0.051,0.025l-0.035,0.017l-0.032,0.016l-0.035,0.017l-0.031,0.015l-0.037,0.018l-0.028,0.014l-0.063,0.032l-0.032,0.016
	l-0.036,0.018l-0.03,0.015l-0.037,0.018l-0.028,0.014l-0.13,0.066l-0.032,0.017l-0.035,0.018l-0.03,0.015L129.8,4.724l-0.026,0.013
	l-0.072,0.037l-0.025,0.013l-0.037,0.02l-0.027,0.014l-0.038,0.02l-0.029,0.015l-0.035,0.018l-0.038,0.02l-0.055,0.029l-0.031,0.016
	l-0.034,0.018l-0.032,0.017l-0.034,0.018l-0.033,0.018l-0.045,0.024l-0.045,0.024l-0.035,0.019l-0.032,0.017l-0.033,0.018
	l-0.034,0.018l-0.031,0.017l-0.041,0.022l-0.049,0.027l-0.033,0.018l-0.036,0.02l-0.029,0.016l-0.035,0.019l-0.03,0.016
	l-0.078,0.043l-0.014,0.007l-0.037,0.021l-0.026,0.015l-0.037,0.02l-0.029,0.016l-0.035,0.02l-0.028,0.015L128.4,5.479l-0.028,0.016
	l-0.035,0.02l-0.029,0.016l-0.036,0.02l-0.028,0.016l-0.035,0.02l-0.03,0.017l-0.06,0.034l-0.031,0.018l-0.034,0.02l-0.027,0.016
	l-0.037,0.021l-0.028,0.016l-0.057,0.033l-0.035,0.021l-0.033,0.019l-0.03,0.018l-0.034,0.02l-0.03,0.018l-0.034,0.02l-0.04,0.023
	l-0.047,0.028l-0.033,0.019l-0.033,0.02l-0.031,0.018l-0.033,0.02l-0.03,0.018l-0.033,0.02l-0.057,0.034l-0.031,0.018l-0.033,0.02
	l-0.032,0.019l-0.034,0.02l-0.028,0.017l-0.043,0.026l-0.04,0.025l-0.04,0.024l-0.028,0.017l-0.035,0.022l-0.029,0.018l-0.036,0.022
	l-0.028,0.018l-0.057,0.035l-0.028,0.018l-0.035,0.022l-0.028,0.017l-0.037,0.023l-0.028,0.018l-0.039,0.025l-0.031,0.019
	l-0.05,0.032l-0.027,0.017l-0.036,0.023l-0.027,0.017l-0.037,0.024l-0.025,0.016l-0.059,0.038L126.37,6.7l-0.043,0.027l-0.027,0.017
	l-0.036,0.023l-0.027,0.018l-0.04,0.026l-0.022,0.014l-0.06,0.039l-0.021,0.014l-0.04,0.026l-0.026,0.017l-0.039,0.026l-0.023,0.015
	l-0.061,0.04l-0.009,0.006l-0.053,0.035l-0.023,0.016l-0.039,0.026l-0.025,0.017l-0.044,0.029l-0.017,0.011l-0.061,0.041
	l-0.017,0.011l-0.047,0.031l-0.02,0.013l-0.045,0.03l-0.018,0.012l-0.06,0.04l-0.003,0.002l-0.061,0.042l-0.02,0.014l-0.042,0.029
	l-0.022,0.015l-0.043,0.03l-0.019,0.013l-0.06,0.041l-0.013,0.009l-0.049,0.034l-0.02,0.014l-0.043,0.03l-0.02,0.014l-0.05,0.035
	l-0.011,0.008l-0.061,0.043l-0.016,0.012l-0.045,0.032l-0.02,0.014l-0.045,0.032l-0.017,0.012l-0.061,0.043l-0.008,0.006
	l-0.055,0.039l-0.016,0.011l-0.046,0.033l-0.018,0.013l-0.051,0.037l-0.01,0.007l-0.061,0.044l-0.014,0.01l-0.048,0.034
	l-0.018,0.013l-0.045,0.033l-0.018,0.013c-0.04,0.029-0.08,0.058-0.12,0.087l-0.02,0.015l-0.042,0.031l-0.02,0.014l-0.048,0.035
	l-0.012,0.009l-0.062,0.046l-0.008,0.006l-0.052,0.039l-0.017,0.013l-0.047,0.035l-0.013,0.01c-0.042,0.031-0.082,0.062-0.124,0.093
	l-0.01,0.008l-0.05,0.038l-0.016,0.012l-0.05,0.038l-0.009,0.007l-0.063,0.048l-0.001,0.001l-0.06,0.046l-0.012,0.01l-0.049,0.037
	l-0.015,0.011l-0.057,0.044l-0.002,0.002l-0.062,0.048l-0.008,0.006l-0.052,0.04l-0.014,0.011l-0.047,0.036l-0.014,0.011
	L122.98,9.11l-0.01,0.008l-0.052,0.041l-0.011,0.009l-0.056,0.045l-0.004,0.003l-0.122,0.097l-0.012,0.01l-0.051,0.041l-0.009,0.007
	l-0.122,0.098l-0.008,0.006l-0.053,0.043l-0.011,0.009l-0.057,0.047l-0.001,0.001l-0.123,0.101l-0.008,0.006l-0.055,0.045
	l-0.006,0.005c-0.041,0.034-0.082,0.068-0.123,0.102l-0.004,0.004l-0.056,0.047l-0.007,0.006l-0.057,0.048l-0.003,0.003
	c-0.041,0.035-0.082,0.068-0.123,0.103l-0.005,0.004l-0.057,0.048l-0.004,0.003c-0.06,0.051-0.122,0.103-0.182,0.155l-0.008,0.007
	l-0.057,0.049l-0.001,0.001c-0.061,0.053-0.122,0.105-0.183,0.159l-0.004,0.003c-0.061,0.053-0.121,0.106-0.181,0.159l-0.004,0.004
	l-0.056,0.049l-0.005,0.004c-0.06,0.053-0.12,0.107-0.18,0.16l-0.003,0.003c-0.06,0.054-0.121,0.108-0.181,0.163l-0.001,0.001
	c-0.081,0.073-0.161,0.146-0.241,0.22l-0.001,0.001c-2.699,2.478-5.069,5.293-7.053,8.374c-3.188,4.954-1.757,11.554,3.197,14.742
	c4.954,3.188,11.554,1.757,14.742-3.197c3.918-6.127,10.693-9.83,17.965-9.819h277.333c4.601-0.016,9.081,1.471,12.761,4.234
	c4.716,3.531,11.401,2.57,14.931-2.146c3.531-4.716,2.57-11.401-2.146-14.931c-0.389-0.291-0.783-0.576-1.183-0.854l-0.002-0.002
	c-0.055-0.038-0.11-0.077-0.165-0.115l-0.007-0.005l-0.037-0.026l-0.007-0.005l-0.038-0.026l-0.005-0.003l-0.125-0.085l-0.002-0.001
	l-0.038-0.026l-0.008-0.006l-0.038-0.026l-0.006-0.004l-0.124-0.083l-0.003-0.002l-0.034-0.023l-0.014-0.009l-0.031-0.021
	l-0.018-0.012l-0.031-0.02l-0.016-0.011l-0.047-0.031l-0.028-0.018l-0.023-0.015l-0.028-0.018l-0.022-0.015l-0.024-0.016
	l-0.026-0.017l-0.025-0.016l-0.024-0.016l-0.046-0.03l-0.017-0.011l-0.032-0.021l-0.02-0.013l-0.03-0.019l-0.021-0.014l-0.032-0.021
	l-0.015-0.01l-0.048-0.031l-0.003-0.002l-0.05-0.032l-0.016-0.01l-0.033-0.021l-0.019-0.012l-0.034-0.022l-0.016-0.01l-0.043-0.028
	l-0.006-0.004l-0.053-0.034L449.5,6.618l-0.05-0.032l-0.007-0.005l-0.045-0.029l-0.008-0.005l-0.049-0.031l-0.003-0.002
	l-0.105-0.066l-0.009-0.006l-0.045-0.028l-0.006-0.004c-0.072-0.045-0.144-0.089-0.215-0.133l-0.001-0.001
	c-5.113-3.141-10.835-5.161-16.787-5.926h0l-0.063-0.008l-0.006-0.001c-0.086-0.011-0.175-0.022-0.262-0.032l-0.006-0.001
	c-0.065-0.008-0.132-0.016-0.198-0.023h0l-0.063-0.007l-0.009-0.001l-0.058-0.007l-0.006-0.001l-0.131-0.015l-0.002,0l-0.061-0.007
	l-0.012-0.001l-0.053-0.006l-0.012-0.001l-0.06-0.006l-0.003,0l-0.13-0.013l-0.012-0.001l-0.052-0.005l-0.013-0.001l-0.057-0.006
	l-0.006-0.001l-0.131-0.013l-0.006-0.001l-0.059-0.006l-0.008-0.001l-0.058-0.005l-0.008-0.001l-0.131-0.012l-0.004,0l-0.06-0.005
	l-0.012-0.001l-0.053-0.005l-0.011-0.001c-0.065-0.006-0.131-0.011-0.196-0.016l-0.007-0.001l-0.056-0.004l-0.014-0.001
	l-0.054-0.004l-0.01-0.001l-0.13-0.01l-0.011-0.001l-0.052-0.004l-0.017-0.001l-0.051-0.004l-0.013-0.001l-0.058-0.004l-0.006,0
	L429.612,0.1L429.604,0.1l-0.054-0.004l-0.019-0.001l-0.045-0.003l-0.019-0.001l-0.049-0.003l-0.014-0.001l-0.129-0.008
	l-0.013-0.001l-0.051-0.003l-0.017-0.001l-0.048-0.003L429.13,0.07l-0.061-0.003l-0.003,0l-0.064-0.003l-0.015-0.001l-0.049-0.003
	l-0.018-0.001l-0.046-0.002l-0.02-0.001l-0.053-0.003l-0.009,0l-0.064-0.003l-0.014-0.001l-0.051-0.002l-0.018-0.001l-0.045-0.002
	l-0.02-0.001l-0.049-0.002l-0.014-0.001l-0.128-0.005l-0.018-0.001l-0.045-0.002l-0.022-0.001l-0.045-0.002l-0.018-0.001
	l-0.055-0.002l-0.009,0l-0.063-0.002l-0.018-0.001l-0.045-0.001l-0.022-0.001l-0.044-0.001l-0.02-0.001l-0.048-0.001l-0.016,0
	l-0.062-0.002l-0.017,0l-0.046-0.001l-0.025-0.001l-0.039-0.001l-0.025-0.001l-0.042-0.001l-0.022,0L427.5,0.008l-0.021,0
	l-0.043-0.001l-0.022,0l-0.043-0.001l-0.021,0l-0.054-0.001l-0.01,0l-0.063-0.001l-0.021,0l-0.043-0.001l-0.022,0l-0.044,0l-0.02,0
	l-0.049,0l-0.015,0l-0.063,0l-0.016,0l-0.048,0l-0.022,0l-0.042,0l-0.024,0l-0.043,0h-0.02L426.667,0L426.667,0z"/>
<path style="fill:#385BC3;" d="M149.334,127.997H426.67c23.564,0,42.667,19.102,42.667,42.665l0,0
	c0,23.563-19.103,42.665-42.667,42.665H149.334c-23.564,0-42.667-19.102-42.667-42.665l0,0
	C106.667,147.098,125.769,127.997,149.334,127.997z"/>
<path style="fill:#1B43BA;" d="M149.33,149.337h277.334c11.782,0,21.333,9.551,21.333,21.333v0.001
	c0,11.782-9.551,21.333-21.333,21.333H149.33c-11.782,0-21.333-9.551-21.333-21.333v-0.001
	C127.997,158.888,137.548,149.337,149.33,149.337z"/>
<g>
	<path style="fill:#002BAD;" d="M149.33,149.337h85.334c11.782,0,21.333,9.551,21.333,21.333v0.001
		c0,11.782-9.551,21.333-21.333,21.333H149.33c-11.782,0-21.333-9.551-21.333-21.333v-0.001
		C127.997,158.888,137.548,149.337,149.33,149.337z"/>
	<path style="fill:#002BAD;" d="M426.667,149.333c11.782,0,21.333,9.551,21.333,21.333c0,0,0,0,0,0
		c0,11.782-9.551,21.333-21.333,21.333c0,0,0,0,0,0c-11.782,0-21.333-9.551-21.333-21.333c0,0,0,0,0,0
		C405.333,158.885,414.885,149.333,426.667,149.333C426.667,149.333,426.667,149.333,426.667,149.333z"/>
</g>
<path style="fill:#F6EDFF;" d="M384.003,469.337h-192c-23.564,0-42.667-19.103-42.667-42.667v0v-256l0,0H426.67l0,0v256
	C426.67,450.234,407.567,469.337,384.003,469.337L384.003,469.337z"/>
<circle style="fill:#D7E816;" cx="341.337" cy="362.667" r="42.667"/>
<path style="fill:#FAF5FF;" d="M192,234.667L192,234.667c11.783,0,21.334,9.551,21.334,21.333v149.334
	c0,11.782-9.551,21.333-21.333,21.333H192c-11.782,0-21.333-9.551-21.333-21.333V256C170.667,244.218,180.218,234.667,192,234.667z"
	/>
<path style="fill:#F0E1FF;" d="M416,234.667c-5.891,0-10.667,4.776-10.667,10.667v181.333C405.32,438.443,395.777,447.987,384,448
	H210.305c-5.891,0-10.667,4.776-10.667,10.667c0,5.891,4.776,10.667,10.667,10.667H384c23.564,0,42.667-19.103,42.667-42.667l0,0
	V245.333C426.667,239.442,421.891,234.667,416,234.667L416,234.667z"/>
<g>
	<path style="fill:#FF4957;" d="M202.67,405.337L202.67,405.337c-5.891,0-10.666-4.776-10.666-10.667v-85.336
		c0-5.891,4.776-10.667,10.667-10.667h0c5.891,0,10.667,4.776,10.667,10.667v85.336C213.337,400.561,208.561,405.337,202.67,405.337
		z"/>
	<path style="fill:#FF4957;" d="M245.33,405.337L245.33,405.337c-5.891,0-10.667-4.776-10.667-10.667V266.674
		c0-5.891,4.776-10.667,10.667-10.667l0,0c5.891,0,10.667,4.776,10.667,10.667V394.67
		C255.997,400.561,251.221,405.337,245.33,405.337z"/>
	<path style="fill:#FF4957;" d="M202.67,277.327L202.67,277.327c-5.891,0-10.666-4.776-10.666-10.667v-42.666
		c0-5.891,4.776-10.667,10.667-10.667h0c5.891,0,10.667,4.776,10.667,10.667v42.666C213.337,272.551,208.561,277.327,202.67,277.327
		z"/>
</g>
<circle style="fill:#19E77C;" cx="341.337" cy="319.997" r="42.667"/>
<ellipse style="fill:#559AFF;" cx="341.337" cy="341.337" rx="36.749" ry="21.333"/>
<g>
	<path style="fill:#19E77C;" d="M64,255.997L64,255.997c11.783,0,21.334,9.551,21.334,21.333v128.004
		c0,11.782-9.551,21.333-21.333,21.333H64c-11.782,0-21.333-9.551-21.333-21.333V277.33C42.667,265.548,52.218,255.997,64,255.997z"
		/>
	<path style="fill:#19E77C;" d="M79.085,262.248c-8.331-8.331-21.839-8.331-30.17,0c0,0,0,0,0,0L6.248,301.255
		c-8.331,8.331-8.331,21.839,0,30.17c0,0,0,0,0,0c8.331,8.331,21.839,8.331,30.17,0c0,0,0,0,0,0l42.667-39.006
		C87.047,284.156,86.754,270.793,79.085,262.248z"/>
	<path style="fill:#19E77C;" d="M48.915,262.248c8.331-8.331,21.839-8.331,30.17,0c0,0,0,0,0,0l42.667,39.006
		c8.331,8.331,8.331,21.839,0,30.17l0,0c-8.331,8.331-21.839,8.331-30.17,0c0,0,0,0,0,0l-42.667-39.006
		C40.584,284.087,40.584,270.58,48.915,262.248z"/>
</g>
<g>
	<path style="fill:#90A3DD;" d="M426.67,42.667L426.67,42.667c11.783,0,21.334,9.551,21.334,21.333v21.334
		c0,11.782-9.551,21.333-21.333,21.333h-0.001c-11.782,0-21.333-9.551-21.333-21.333V64
		C405.337,52.218,414.888,42.667,426.67,42.667z"/>
	<path style="fill:#90A3DD;" d="M159.997,42.667h106.67c17.673,0,32,14.327,32,32l0,0c0,17.673-14.327,32-32,32h-106.67
		c-17.673,0-32-14.327-32-32l0,0C127.997,56.994,142.324,42.667,159.997,42.667z"/>
</g>
<path style="fill:#F0E1FF;" d="M170.67,170.667h234.664c11.782,0,21.333,9.551,21.333,21.333v0.001
	c0,11.782-9.551,21.333-21.333,21.333H170.67c-11.782,0-21.333-9.551-21.333-21.333V192
	C149.337,180.218,158.888,170.667,170.67,170.667z"/>
<g>
</g>
<g>
</g>
<g>
</g>
<g>
</g>
<g>
</g>
<g>
</g>
<g>
</g>
<g>
</g>
<g>
</g>
<g>
</g>
<g>
</g>
<g>
</g>
<g>
</g>
<g>
</g>
<g>
</g>
</svg>
